<?xml version="1.0" encoding="utf-8"?>
<!-- Generator: Adobe Illustrator 22.0.0, SVG Export Plug-In . SVG Version: 6.00 Build 0)  -->
<svg version="1.1" id="Layer_1" xmlns="http://www.w3.org/2000/svg" xmlns:xlink="http://www.w3.org/1999/xlink" x="0px" y="0px"
	 viewBox="0 0 112.6 45.3" style="enable-background:new 0 0 112.6 45.3;" xml:space="preserve">
<style type="text/css">
	.st0{fill:#FFFFFF;}
	.st1{fill:#C2B59B;}
	.st2{fill:#BE1E2D;}
</style>
<g>
	<g>
		<polygon class="st0" points="17,9.1 0,9.1 1.6,0 18.6,0 		"/>
		<polygon class="st0" points="111,9.1 94,9.1 95.6,0 112.6,0 		"/>
		<path class="st1" d="M68.4,25.8l1.1-6.2c0.1-0.8-0.4-1.4-1.2-1.4H39.5c-0.8,0-1.5,0.6-1.7,1.4l-0.5,3.1l-0.8,4.5l-1.6,9.1
			l-0.8,4.5l-0.5,3.1c-0.1,0.8,0.4,1.4,1.2,1.4h28.8c0.8,0,1.5-0.6,1.7-1.4l1.1-6.2c0.1-0.8-0.4-1.4-1.2-1.4H45
			c-0.6,0-1-0.5-0.9-1.1l1.2-6.9c0.1-0.6,0.7-1.1,1.3-1.1h20.1C67.5,27.2,68.2,26.6,68.4,25.8z"/>
		<path class="st2" d="M52.6,0L51,9.1H32.1c-0.8,0-1.6,0.7-1.7,1.5l-6.1,34.8h-9.1l7.5-42.8c0.3-1.4,1.6-2.6,3-2.6H52.6z"/>
		<path class="st2" d="M90.6,2.6l-7.5,42.8H74l6.1-34.8c0.1-0.8-0.4-1.5-1.2-1.5H60L61.6,0h26.9C89.9,0,90.9,1.2,90.6,2.6z"/>
	</g>
</g>
</svg>
